<svg xmlns="http://www.w3.org/2000/svg" id="Icon_Set" enable-background="new 0 0 512 512" viewBox="0 0 512 512"><circle cx="256" cy="256" r="207" fill="#f0c48a"/><path fill="#fd919e" d="M489.424,263.471h-35.083c-11.536,0-20.888-9.352-20.888-20.888l0,0c0-11.536,9.352-20.888,20.888-20.888
					h35.083V263.471z"/><path fill="#7babf1" d="M379.668,241.519c0-22.614-16.322-43.335-43.429-59.429c7.788-30.548,4.677-56.741-11.314-72.732
					c-15.991-15.991-42.184-19.101-72.731-11.313C236.1,70.939,215.38,54.617,192.765,54.617s-43.335,16.322-59.429,43.429
					c-30.548-7.788-56.741-4.677-72.731,11.313c-15.991,15.991-19.101,42.184-11.313,72.732
					c-27.107,16.094-43.429,36.814-43.429,59.429s16.322,43.335,43.429,59.429c-7.788,30.548-4.677,56.741,11.313,72.731
					c15.991,15.991,42.184,19.101,72.731,11.314c16.094,27.107,36.814,43.429,59.429,43.429s43.335-16.322,59.429-43.429
					c30.548,7.788,56.741,4.677,72.731-11.314c15.991-15.991,19.101-42.184,11.314-72.731
					C363.346,284.854,379.668,264.134,379.668,241.519z"/><path fill="#a4cff2" d="M133.337 384.993c16.094 27.107 36.814 43.429 59.429 43.429s43.335-16.322 59.429-43.429c-18.631-4.75-38.881-13.557-59.429-25.974C172.217 371.436 151.968 380.243 133.337 384.993zM252.194 98.046C236.1 70.939 215.38 54.617 192.765 54.617s-43.335 16.322-59.429 43.429c18.631 4.75 38.881 13.557 59.429 25.974C213.313 111.603 233.563 102.795 252.194 98.046zM379.668 241.519c0-22.614-16.322-43.335-43.429-59.429-4.75 18.631-13.557 38.881-25.974 59.429 12.417 20.548 21.224 40.798 25.974 59.429C363.346 284.854 379.668 264.134 379.668 241.519zM49.292 182.091c-27.107 16.094-43.429 36.814-43.429 59.429s16.322 43.335 43.429 59.429c4.75-18.631 13.557-38.881 25.974-59.429C62.849 220.971 54.041 200.722 49.292 182.091z"/><path fill="#a4cff2" d="M133.337 98.046c-30.548-7.788-56.741-4.677-72.731 11.313-15.991 15.991-19.101 42.184-11.313 72.732 16.533-9.816 37.079-17.906 60.389-23.656C115.43 135.125 123.521 114.578 133.337 98.046zM252.194 384.993c30.548 7.788 56.741 4.677 72.731-11.314 15.991-15.991 19.101-42.184 11.314-72.731-16.533 9.816-37.079 17.906-60.389 23.656C270.1 347.914 262.01 368.461 252.194 384.993z"/><path fill="#a4cff2" d="M155.132 150.664c-15.991 1.622-31.232 4.263-45.451 7.771-3.507 14.219-6.149 29.46-7.771 45.451 7.724-9.468 16.166-18.826 25.281-27.941C136.306 166.83 145.664 158.388 155.132 150.664zM230.399 332.375c15.991-1.622 31.232-4.263 45.451-7.77 3.507-14.22 6.148-29.46 7.771-45.451-7.724 9.468-16.165 18.825-25.281 27.941C249.224 316.209 239.867 324.651 230.399 332.375zM336.239 182.091c7.788-30.548 4.677-56.741-11.314-72.732-15.991-15.991-42.184-19.101-72.731-11.313 9.816 16.533 17.906 37.079 23.656 60.389C299.16 164.184 319.707 172.275 336.239 182.091zM49.292 300.948c-7.788 30.548-4.677 56.741 11.313 72.731 15.991 15.991 42.184 19.101 72.731 11.314-9.816-16.533-17.906-37.079-23.656-60.389C86.371 318.855 65.824 310.764 49.292 300.948zM283.621 203.886c-1.622-15.991-4.263-31.232-7.771-45.451-14.22-3.508-29.46-6.148-45.451-7.771 9.468 7.724 18.825 16.166 27.941 25.281C267.455 185.06 275.897 194.418 283.621 203.886z"/><path fill="#a4cff2" d="M101.91 279.153c1.622 15.991 4.263 31.232 7.77 45.451 14.22 3.507 29.461 6.149 45.452 7.77-9.468-7.724-18.826-16.165-27.941-25.281C118.076 297.978 109.634 288.621 101.91 279.153zM155.132 332.375c12.454 10.161 25.099 19.07 37.633 26.644 12.535-7.574 25.179-16.484 37.634-26.644-12.157 1.233-24.743 1.881-37.634 1.881C179.874 334.256 167.288 333.608 155.132 332.375zM230.399 150.664c-12.454-10.16-25.099-19.07-37.634-26.644-12.535 7.575-25.179 16.484-37.633 26.644 12.156-1.233 24.742-1.881 37.633-1.881C205.656 148.783 218.242 149.431 230.399 150.664zM285.502 241.519c0 12.891-.648 25.477-1.881 37.634 10.16-12.454 19.07-25.099 26.644-37.634-7.575-12.535-16.484-25.179-26.644-37.633C284.854 216.042 285.502 228.628 285.502 241.519zM101.91 203.886c-10.16 12.454-19.07 25.099-26.644 37.633 7.575 12.535 16.484 25.179 26.644 37.634-1.233-12.157-1.881-24.743-1.881-37.634C100.029 228.628 100.677 216.042 101.91 203.886z"/><g><circle cx="192.765" cy="241.52" r="63.448" fill="#fd919e"/></g><g><circle cx="192.765" cy="241.52" r="28.118" fill="#e8677d"/></g><g><path fill="#4c4372" d="M192.765,434.285c-27.115,0-52.269-20.598-70.826-58c-17.91-36.095-27.773-83.956-27.773-134.766
					s9.863-98.671,27.773-134.766c18.558-37.401,43.711-57.999,70.826-57.999c27.115,0,52.269,20.598,70.826,57.999
					c17.909,36.095,27.772,83.956,27.772,134.766s-9.863,98.672-27.772,134.766C245.034,413.687,219.881,434.285,192.765,434.285z
					 M192.765,60.479c-22.426,0-43.849,18.284-60.323,51.486c-17.122,34.508-26.551,80.517-26.551,129.554
					s9.429,95.048,26.551,129.555c16.473,33.201,37.896,51.486,60.323,51.486c22.426,0,43.849-18.284,60.323-51.486
					c17.121-34.508,26.55-80.518,26.55-129.555s-9.429-95.047-26.55-129.554C236.615,78.763,215.192,60.479,192.765,60.479z"/></g><g><path fill="#4c4372" d="M192.765,340.118c-50.81,0-98.671-9.863-134.766-27.773C20.598,293.788,0,268.634,0,241.519
					c0-27.116,20.598-52.268,57.999-70.825c36.095-17.909,83.956-27.773,134.766-27.773c50.81,0,98.671,9.864,134.766,27.773
					c37.401,18.557,57.999,43.71,57.999,70.825c0,27.115-20.598,52.269-57.999,70.826
					C291.436,330.255,243.575,340.118,192.765,340.118z M192.765,154.646c-49.037,0-95.047,9.429-129.554,26.551
					c-33.201,16.473-51.486,37.896-51.486,60.323s18.285,43.849,51.486,60.323c34.507,17.121,80.517,26.551,129.554,26.551
					s95.047-9.429,129.554-26.551c33.201-16.473,51.486-37.897,51.486-60.323s-18.285-43.849-51.486-60.323
					C287.813,164.075,241.803,154.646,192.765,154.646z"/></g><g><path fill="#4c4372" d="M282.117,394.948c-46.486,0-107.439-32.075-159.072-83.71c-35.928-35.927-62.796-76.744-75.656-114.931
					c-13.325-39.569-10.104-71.92,9.07-91.093C67.662,94.011,83.898,88.09,103.414,88.09c46.485,0,107.438,32.075,159.072,83.71
					c35.928,35.927,62.796,76.745,75.655,114.932c13.325,39.569,10.104,71.92-9.07,91.092
					C317.869,389.028,301.632,394.948,282.117,394.948z M103.414,99.815c-16.571,0-29.579,4.606-38.663,13.69
					c-15.858,15.858-18.077,43.935-6.249,79.061c12.293,36.507,38.16,75.708,72.835,110.383
					c48.765,48.765,107.95,80.275,150.781,80.275c16.571,0,29.579-4.606,38.663-13.689c15.858-15.858,18.077-43.936,6.249-79.061
					c-12.293-36.507-38.16-75.708-72.834-110.384C205.429,131.325,146.244,99.815,103.414,99.815z"/></g><g><path fill="#4c4372" d="M103.414,394.948c-19.515,0-35.751-5.921-46.954-17.124c-19.173-19.173-22.394-51.524-9.07-91.092
					c12.859-38.187,39.728-79.005,75.656-114.932c51.634-51.635,112.587-83.71,159.072-83.71c19.515,0,35.752,5.922,46.954,17.125
					c19.173,19.173,22.395,51.524,9.07,91.093c-12.859,38.187-39.727,79.004-75.655,114.931
					C210.852,362.873,149.899,394.948,103.414,394.948z M282.117,99.815c-42.83,0-102.015,31.51-150.781,80.275
					c-34.675,34.676-60.541,73.877-72.835,110.384c-11.828,35.125-9.609,63.203,6.249,79.061
					c9.084,9.083,22.092,13.689,38.663,13.689c42.831,0,102.015-31.51,150.781-80.275c34.675-34.675,60.541-73.876,72.834-110.383
					c11.828-35.126,9.609-63.203-6.249-79.061C311.697,104.421,298.689,99.815,282.117,99.815z"/></g><g><path fill="#4c4372" d="M192.765,310.83c-38.218,0-69.311-31.093-69.311-69.311c0-38.218,31.093-69.31,69.311-69.31
					c38.218,0,69.311,31.092,69.311,69.31C262.076,279.738,230.983,310.83,192.765,310.83z M192.765,183.934
					c-31.753,0-57.586,25.832-57.586,57.585c0,31.753,25.833,57.586,57.586,57.586c31.753,0,57.586-25.833,57.586-57.586
					C250.351,209.766,224.518,183.934,192.765,183.934z"/></g><g><path fill="#4c4372" d="M192.765,275.5c-18.737,0-33.98-15.243-33.98-33.981c0-18.737,15.244-33.98,33.98-33.98
					c18.737,0,33.98,15.243,33.98,33.98C226.746,260.257,211.502,275.5,192.765,275.5z M192.765,219.264
					c-12.271,0-22.255,9.984-22.255,22.255c0,12.272,9.984,22.256,22.255,22.256c12.271,0,22.255-9.984,22.255-22.256
					C215.02,229.248,205.037,219.264,192.765,219.264z"/></g><g><path fill="#4c4372" d="M379.068,463.246H213.34c-14.27,0-25.878-11.609-25.878-25.879v-7.241c0-3.238,2.625-5.863,5.863-5.863
					c3.238,0,5.863,2.625,5.863,5.863v7.241c0,7.804,6.349,14.154,14.153,14.154h165.728c7.804,0,14.153-6.349,14.153-14.154
					V262.599c0-14.269,11.609-25.878,25.878-25.878h14.354c3.238,0,5.863,2.625,5.863,5.863s-2.625,5.863-5.863,5.863H419.1
					c-7.804,0-14.153,6.349-14.153,14.153v174.768C404.947,451.637,393.338,463.246,379.068,463.246z"/></g><g><path fill="#4c4372" d="M489.425,269.334h-35.083c-14.75,0-26.75-12-26.75-26.75c0-14.751,12-26.751,26.75-26.751h35.083
					c3.238,0,5.863,2.625,5.863,5.863v41.776C495.287,266.709,492.663,269.334,489.425,269.334z M454.341,227.558
					c-8.285,0-15.025,6.741-15.025,15.026c0,8.284,6.74,15.025,15.025,15.025h29.221v-30.051H454.341z"/></g><g><path fill="#4c4372" d="M506.137,236.702h-16.713c-3.238,0-5.863-2.625-5.863-5.863c0-3.238,2.625-5.863,5.863-5.863h16.713
					c3.238,0,5.863,2.625,5.863,5.863C512,234.077,509.375,236.702,506.137,236.702z"/></g><g><path fill="#4c4372" d="M506.137,260.191h-16.713c-3.238,0-5.863-2.625-5.863-5.863s2.625-5.863,5.863-5.863h16.713
					c3.238,0,5.863,2.625,5.863,5.863S509.375,260.191,506.137,260.191z"/></g><g><path fill="#4c4372" d="M470.754,269.334c-3.238,0-5.863-2.625-5.863-5.863v-41.776c0-3.238,2.625-5.863,5.863-5.863
					c3.238,0,5.863,2.625,5.863,5.863v41.776C476.616,266.709,473.991,269.334,470.754,269.334z"/></g></svg>